HIERARCHY
ROOT Hips
{
	OFFSET 0.000000 0.000000 0.000000
	CHANNELS 6 Xposition Yposition Zposition Zrotation Yrotation Xrotation 
	JOINT LHipJoint
	{
		OFFSET 0.000000 0.000000 0.000000
		CHANNELS 3 Zrotation Yrotation Xrotation
		JOINT LeftUpLeg
		{
			OFFSET 1.363060 -1.794630 0.839290
			CHANNELS 3 Zrotation Yrotation Xrotation
			JOINT LeftLeg
			{
				OFFSET 2.448110 -6.726130 0.000000
				CHANNELS 3 Zrotation Yrotation Xrotation
				JOINT LeftFoot
				{
					OFFSET 2.562200 -7.039590 0.000000
					CHANNELS 3 Zrotation Yrotation Xrotation
					JOINT LeftToeBase
					{
						OFFSET 0.157640 -0.433110 2.322550
						CHANNELS 3 Zrotation Yrotation Xrotation
						End Site
						{
							OFFSET 0.000000 0.000000 0.000000
						}
					}
				}
			}
		}
	}
	JOINT RHipJoint
	{
		OFFSET 0.000000 0.000000 0.000000
		CHANNELS 3 Zrotation Yrotation Xrotation
		JOINT RightUpLeg
		{
			OFFSET -1.305520 -1.794630 0.839290
			CHANNELS 3 Zrotation Yrotation Xrotation
			JOINT RightLeg
			{
				OFFSET -2.542530 -6.985550 0.000000
				CHANNELS 3 Zrotation Yrotation Xrotation
				JOINT RightFoot
				{
					OFFSET -2.568260 -7.056230 0.000000
					CHANNELS 3 Zrotation Yrotation Xrotation
					JOINT RightToeBase
					{
						OFFSET -0.164730 -0.452590 2.363150
						CHANNELS 3 Zrotation Yrotation Xrotation
						End Site
						{
							OFFSET 0.000000 0.000000 0.000000
						}
					}
				}
			}
		}
	}
}
MOTION
Frames: 11
Frame Time: 0.008333
0.202988 17.191096 -0.906078 160.381963 86.498474 158.315429 -11.198193 5.332072 -0.173107 -1.406052 13.412651 5.919361 0.064120 2.681210 37.070863 1.316750 -3.214511 28.127461 -2.486600 0.000000 -71.806700 10.092249 -1.034468 2.110147 3.948477 -2.036187 -16.163356 1.846441 -0.445201 12.640081 -0.144270 -0.659716 2.778791 -0.520200 -0.000001 -53.827100
0.372455 17.185774 -0.894111 164.320283 86.492464 162.130042 -11.325131 5.309192 -0.254323 -0.704117 14.186888 4.650414 0.162193 2.726579 39.440075 1.489929 -2.182821 29.052824 -2.034800 -0.000000 -66.952100 10.085198 -1.076704 1.975154 4.307809 -2.647278 -15.984581 1.830939 -0.509217 13.636422 -0.164598 -0.738247 2.496964 -0.520200 0.000000 -52.262400
0.538313 17.179407 -0.882858 167.635987 86.455771 165.348681 -11.440004 5.263875 -0.350175 -0.132717 14.912356 3.316092 0.250865 2.781358 41.812753 1.656914 -0.701576 29.497683 -1.283500 -0.000000 -61.882600 10.069408 -1.111290 1.861366 4.613271 -3.127226 -15.814470 1.812904 -0.568146 14.651008 -0.189893 -0.821133 2.053203 -0.515100 0.000000 -50.483900
0.700775 17.172367 -0.872273 170.340667 86.382845 167.981759 -11.539543 5.197613 -0.458431 0.301379 15.571156 1.930429 0.334920 2.847856 44.151706 1.816440 1.184246 29.423425 -0.276000 -0.000000 -56.935600 10.047689 -1.139280 1.770991 4.865424 -3.460253 -15.626962 1.792886 -0.620439 15.647720 -0.222081 -0.921860 1.462156 -0.506700 0.000000 -48.557900
0.860155 17.165111 -0.862309 172.464618 86.267494 170.056161 -11.621223 5.113000 -0.575626 0.596995 16.149282 0.507414 0.417561 2.926289 46.419458 1.968294 3.388219 28.817136 0.903400 0.000001 -52.355000 10.023543 -1.161451 1.702578 5.066453 -3.652090 -15.400374 1.771743 -0.664896 16.592875 -0.262199 -1.048720 0.747671 -0.495700 0.000000 -46.565300
1.016881 17.158177 -0.852997 174.059843 86.105081 171.619350 -11.683741 5.013687 -0.697174 0.758778 16.639636 -0.939551 0.499831 3.014841 48.578521 2.112637 5.796598 27.688891 2.144200 0.000001 -48.273300 10.000234 -1.178973 1.652344 5.220527 -3.726488 -15.118470 1.750508 -0.700629 17.456591 -0.310368 -1.205137 -0.058455 -0.481900 -0.000000 -44.594901
1.171410 17.152028 -0.844451 175.188979 85.892474 172.728962 -11.726877 4.903779 -0.818130 0.795904 17.042339 -2.398658 0.580505 3.110132 50.593081 2.249250 8.282943 26.066163 3.327100 0.000000 -44.675900 9.980583 -1.193300 1.614947 5.331934 -3.720515 -14.772182 1.730082 -0.727157 18.214950 -0.365823 -1.389979 -0.919776 -0.464600 -0.000000 -42.739600
1.324230 17.147121 -0.836774 175.917945 85.628707 173.445746 -11.751176 4.787142 -0.933318 0.719013 17.362464 -3.858100 0.656238 3.207252 52.426902 2.378111 10.727029 24.003573 4.343700 -0.000000 -41.551900 9.966900 -1.206152 1.584284 5.403747 -3.678649 -14.357705 1.711119 -0.744312 18.849290 -0.426886 -1.597778 -1.798108 -0.443100 -0.000000 -41.087400
1.475858 17.143830 -0.830167 176.316353 85.316207 173.835265 -11.757851 4.667391 -1.038288 0.540501 17.611819 -5.307485 0.722031 3.300797 54.048422 2.498237 13.020677 21.567982 5.107700 -0.000000 -38.783300 9.960747 -1.219537 1.554650 5.437918 -3.645846 -13.876061 1.693926 -0.752205 19.347158 -0.491278 -1.820820 -2.656527 -0.417401 0.000000 -39.715601
1.626683 17.142455 -0.824778 176.442757 84.959964 173.953022 -11.748182 4.547212 -1.129433 0.272098 17.805751 -6.738265 0.771956 3.385081 55.430341 2.608176 15.078178 18.843812 5.565800 -0.000001 -36.265100 9.963258 -1.235427 1.521522 5.434732 -3.661590 -13.332392 1.678518 -0.751174 19.701148 -0.556196 -2.049270 -3.461783 -0.388300 0.000000 -38.679300
1.777069 17.143154 -0.820813 176.351214 84.568407 173.851474 -11.723588 4.428607 -1.204786 -0.075325 17.963890 -8.143403 0.800033 3.455127 56.553011 2.705622 16.837725 15.921890 5.700100 0.000001 -33.862601 9.974886 -1.255626 1.481943 5.393246 -3.755445 -12.733724 1.664740 -0.741727 19.909450 -0.618714 -2.272716 -4.187797 -0.357300 0.000000 -38.002700
